<svg xmlns="http://www.w3.org/2000/svg" width="176" height="176" viewBox="0 0 176 176"><g fill="none" stroke-linecap="round"><path d="M6.0 19.4 q10.1 -3.6 20.2 0 t20.2 0" stroke="#274c5e" stroke-opacity="0.27" stroke-width="2.0"/><path d="M6.0 19.4 q10.1 -3.6 20.2 0 t20.2 0" transform="translate(0,-2)" stroke="#ffffff" stroke-opacity="0.24" stroke-width="1.2"/><path d="M40.4 16.1 q10.9 -7.5 21.8 0" stroke="#274c5e" stroke-opacity="0.28" stroke-width="2.3"/><path d="M40.4 16.1 q10.9 -7.5 21.8 0" transform="translate(0,-2)" stroke="#ffffff" stroke-opacity="0.25" stroke-width="1.5"/><path d="M51.9 54.3 q14.0 -6.7 28.0 0 t28.0 0 t28.0 0" stroke="#274c5e" stroke-opacity="0.32" stroke-width="2.2"/><path d="M51.9 54.3 q14.0 -6.7 28.0 0 t28.0 0 t28.0 0" transform="translate(0,-2)" stroke="#ffffff" stroke-opacity="0.28" stroke-width="1.4"/><path d="M88.6 41.8 q14.5 -8.7 29.0 0 t29.0 0" stroke="#274c5e" stroke-opacity="0.33" stroke-width="2.2"/><path d="M88.6 41.8 q14.5 -8.7 29.0 0 t29.0 0" transform="translate(0,-2)" stroke="#ffffff" stroke-opacity="0.30" stroke-width="1.4"/><path d="M14.1 76.5 q13.5 -3.7 27.0 0" stroke="#274c5e" stroke-opacity="0.34" stroke-width="1.8"/><path d="M14.1 76.5 q13.5 -3.7 27.0 0" transform="translate(0,-2)" stroke="#ffffff" stroke-opacity="0.30" stroke-width="1.0"/><path d="M99.3 77.7 q11.9 -5.8 23.8 0 t23.8 0 t23.8 0" stroke="#274c5e" stroke-opacity="0.26" stroke-width="1.7"/><path d="M99.3 77.7 q11.9 -5.8 23.8 0 t23.8 0 t23.8 0" transform="translate(0,-2)" stroke="#ffffff" stroke-opacity="0.23" stroke-width="0.9"/><path d="M56.9 111.6 q10.5 -4.3 21.1 0" stroke="#274c5e" stroke-opacity="0.31" stroke-width="1.8"/><path d="M56.9 111.6 q10.5 -4.3 21.1 0" transform="translate(0,-2)" stroke="#ffffff" stroke-opacity="0.28" stroke-width="1.0"/><path d="M86.5 118.2 q14.0 -6.3 28.0 0 t28.0 0" stroke="#274c5e" stroke-opacity="0.31" stroke-width="1.7"/><path d="M86.5 118.2 q14.0 -6.3 28.0 0 t28.0 0" transform="translate(0,-2)" stroke="#ffffff" stroke-opacity="0.27" stroke-width="0.9"/><path d="M42.1 140.9 q11.7 -7.4 23.5 0 t23.5 0" stroke="#274c5e" stroke-opacity="0.23" stroke-width="1.8"/><path d="M42.1 140.9 q11.7 -7.4 23.5 0 t23.5 0" transform="translate(0,-2)" stroke="#ffffff" stroke-opacity="0.21" stroke-width="1.0"/></g></svg>