<svg width="78" height="31" viewBox="0 0 78 31" fill="none" xmlns="http://www.w3.org/2000/svg" role="img" aria-label="QTS">
<g clip-path="url(#clip0_1021_40361)">
<path d="M8.48381 21.9902L4.0647 25.8762C6.967 29.0225 11.171 31.0003 15.8482 31.0003C16.6564 31.0003 17.4511 30.9417 18.2276 30.8278V24.911C17.4658 25.0945 16.6689 25.1918 15.8482 25.1918C12.9256 25.1918 10.2983 23.9559 8.48268 21.9902H8.48381Z" fill="#CC2031"/>
<path d="M31.707 15.5136C31.707 11.5282 30.1653 7.8943 27.6342 5.15039L23.2151 9.03631C24.7965 10.7521 25.7609 13.0217 25.7609 15.5136C25.7609 17.6517 25.05 19.6272 23.8479 21.2291L20.7215 17.8374H12.6733L24.4523 30.6139H32.5005L27.8799 25.6026C30.2649 22.8929 31.707 19.3674 31.707 15.5136Z" fill="#CC2031"/>
<path d="M32.0737 5.83249H40.2011V30.6128H46.1472V9.69519L42.5872 5.83249H54.2745V0.412109H32.0737V5.83249Z" fill="#CC2031"/>
<path d="M62.5387 8.67284C62.5387 6.89184 64.4687 5.80732 67.0823 5.80732C69.696 5.80732 71.2615 6.73706 72.8462 8.44068L77.366 4.49174C75.9387 2.71074 72.5723 0 67.3755 0C62.1788 0 56.5926 3.32984 56.5926 8.82761C56.5926 18.9719 72.0538 16.8814 72.0538 21.8374C72.0538 24.0053 69.7549 25.1673 67.1378 25.1673C63.9661 25.1673 61.5879 23.541 60.002 21.8374L55.4822 25.7863C57.2265 27.9543 60.7152 30.9746 66.6624 30.9746C72.6096 30.9746 78.0011 27.7221 78.0011 21.7589C78.0011 11.4599 62.5398 13.6278 62.5398 8.67173L62.5387 8.67284Z" fill="#CC2031"/>
<path d="M14.8986 5.87759L14.327 0.0957031C13.8776 0.137713 13.4339 0.197411 12.9958 0.275904L14.0667 5.98925C14.3406 5.94171 14.6179 5.90302 14.8986 5.87759Z" fill="#0033A0"/>
<path d="M11.6738 6.73156L9.16319 1.46484C8.75569 1.64947 8.35725 1.85178 7.96899 2.06957L10.9279 7.10744C11.1701 6.97146 11.4192 6.84653 11.6738 6.73156Z" fill="#0033A0"/>
<path d="M13.2484 6.16946L11.6852 0.564453C11.2505 0.679428 10.8238 0.81209 10.4038 0.961336L12.4492 6.4171C12.7107 6.32423 12.9778 6.24132 13.2495 6.16946H13.2484Z" fill="#0033A0"/>
<path d="M15.8496 5.83271C16.0941 5.83271 16.3363 5.84155 16.5763 5.85924L17.0144 0.066295C16.6295 0.0386569 16.2424 0.0253906 15.8507 0.0253906C15.7907 0.0253906 15.7307 0.0253906 15.6719 0.0264961L15.7398 5.83381C15.7771 5.83381 15.8145 5.83381 15.8519 5.83381L15.8496 5.83271Z" fill="#0033A0"/>
<path d="M22.6129 8.438L26.6788 4.20053C26.3517 3.90093 26.011 3.6146 25.6589 3.34375L21.9756 7.90404C22.1963 8.07208 22.408 8.25007 22.6129 8.438Z" fill="#0033A0"/>
<path d="M21.2953 7.42385L24.5689 2.57502C24.1953 2.33401 23.8104 2.10849 23.4165 1.89844L20.5742 7.00154C20.8221 7.13199 21.0621 7.27239 21.2953 7.42274V7.42385Z" fill="#0033A0"/>
<path d="M19.8204 6.64086L22.2088 1.31997C21.8002 1.1453 21.3814 0.986105 20.9558 0.845703L19.0371 6.34458C19.3031 6.43302 19.5646 6.53252 19.8204 6.64086Z" fill="#0033A0"/>
<path d="M10.2181 7.5454L6.83132 2.76953C6.4623 3.01938 6.10461 3.2836 5.7605 3.56219L9.54798 8.03846C9.76418 7.86379 9.98718 7.69906 10.2181 7.54429V7.5454Z" fill="#0033A0"/>
<path d="M19.6652 0.476595C19.2328 0.37157 18.7936 0.285339 18.3488 0.216797L17.4104 5.95226C17.6889 5.99537 17.9628 6.04954 18.2322 6.11366L19.6652 0.476595Z" fill="#0033A0"/>
<path d="M6.17817 17.6348L0.376953 18.9227C0.475432 19.3527 0.593154 19.7773 0.727856 20.1929L6.3955 18.4296C6.31174 18.1698 6.23816 17.9045 6.17703 17.6348H6.17817Z" fill="#0033A0"/>
<path d="M6.68415 19.2031L1.1897 21.4308C1.36175 21.8376 1.55079 22.2356 1.75793 22.6247L7.03845 19.9505C6.90941 19.7072 6.79056 19.4585 6.68415 19.2031Z" fill="#0033A0"/>
<path d="M5.95063 16.0078L0.0124512 16.3196C0.0350901 16.7607 0.076972 17.1974 0.138097 17.6285L6.02873 16.8259C5.99025 16.5562 5.96421 16.2831 5.95063 16.0078Z" fill="#0033A0"/>
<path d="M8.92316 8.58933L4.761 4.44141C4.44066 4.74764 4.13277 5.06713 3.8396 5.39879L8.34813 9.18632C8.53151 8.97848 8.72394 8.77948 8.92429 8.58933H8.92316Z" fill="#0033A0"/>
<path d="M7.45607 20.6641L2.42798 23.7651C2.66795 24.1365 2.92377 24.498 3.1943 24.8474L7.93489 21.3406C7.76509 21.1217 7.60549 20.8962 7.45607 20.6641Z" fill="#0033A0"/>
<path d="M7.8262 9.82833L3.00525 6.42773C2.74151 6.7815 2.49361 7.14743 2.2627 7.5222L7.3621 10.5115C7.50699 10.2772 7.66207 10.0483 7.8262 9.82722V9.82833Z" fill="#0033A0"/>
<path d="M6.00723 14.3666L0.0996111 13.6934C0.0475416 14.1256 0.0147153 14.5634 0 15.0056L5.94384 15.1858C5.95289 14.9094 5.9744 14.6364 6.00723 14.3666Z" fill="#0033A0"/>
<path d="M6.95684 11.2318L1.61633 8.67578C1.41824 9.06714 1.236 9.46844 1.073 9.87859L6.61726 11.9835C6.71913 11.7281 6.83346 11.4772 6.95684 11.2329V11.2318Z" fill="#0033A0"/>
<path d="M6.34463 12.7603L0.6385 11.123C0.511722 11.5409 0.403056 11.9666 0.3125 12.3988L6.13975 13.5585C6.19635 13.2888 6.26539 13.0223 6.34463 12.7614V12.7603Z" fill="#0033A0"/>
</g>
<defs>
<clipPath id="clip0_1021_40361">
<rect width="78" height="31" fill="white"/>
</clipPath>
</defs>
</svg>
